<?xml version="1.0" encoding="utf-8" ?><svg xmlns="http://www.w3.org/2000/svg" xmlns:xlink="http://www.w3.org/1999/xlink" width="436" height="190" viewBox="0 0 436 190"><path fill="text-purple" d="M160.587 65.1447C164.488 61.196 174.781 54.7484 179.745 51.8877C205.543 37.0225 234.312 25.0724 263.994 21.1317C279.237 19.1079 302.856 16.9463 315.223 28.0733C323.517 35.5349 320.477 49.8896 316.092 58.9295C320.123 56.9606 322.917 55.8847 327.296 54.7378C323.852 60.2016 319.327 66.7527 316.51 72.3461C313.466 68.742 310.615 63.9855 307.895 60.0614C306.758 58.4201 304.376 55.3041 303.561 53.7776C307.279 55.5141 311.059 56.7261 314.613 58.3684C304.742 39.4546 282.642 37.1499 263.808 37.9685C252.779 38.4478 242.267 40.103 231.535 42.7118C207.939 47.7028 185.441 55.9972 163.915 66.8125C163.266 67.1386 162.307 67.6407 161.64 67.88C158.763 69.4777 155.401 70.9193 152.34 72.1236C153.548 70.8545 159.148 66.2297 160.587 65.1447Z"/><path fill="#6D4A9C" d="M160.587 65.1447L160.662 65.4602C160.076 66.0798 158.643 67.9219 158.311 68.6671L158.41 68.9004C159.412 68.5593 160.79 67.6415 161.473 67.7675L161.64 67.88C158.763 69.4777 155.401 70.9193 152.34 72.1236C153.548 70.8545 159.148 66.2297 160.587 65.1447Z"/><path fill="text-purple" d="M104.409 146.934C108.348 140.511 111.062 132.892 114.929 126.382C115.504 125.414 116.166 124.318 116.679 123.332C118.453 126.319 120.018 129.392 121.646 132.458C124.468 137.773 127.471 142.935 130.148 148.328C126.25 146.28 123.346 143.93 119.726 141.621C123.911 151.159 127.393 155.483 137.414 159.652C146.544 163.451 164.172 163.679 174.091 162.577C174.96 161.981 174.881 161.595 175.054 160.669C176.521 159.476 185.888 158.57 188.535 158.102C196.854 156.7 205.106 154.924 213.266 152.78C217.826 151.541 222.376 150.267 226.916 148.958C229.739 148.117 237.755 145.405 240.311 145.38C241.136 145.602 241.96 145.89 242.804 145.8C252.73 141.681 262.476 137.138 272.015 132.187C274.311 131.03 278.196 128.972 280.499 128.222C279.341 129.5 275.114 133.595 273.69 134.352C270.4 137.288 265.108 140.853 261.353 143.316C236.208 159.81 208.144 170.787 178.576 176.194C168.852 177.987 158.714 179.539 148.819 179.13C138.628 178.709 126.777 176.122 119.482 168.507C114.181 162.973 115.806 147.778 117.139 140.688C114.373 142.132 107.129 145.991 104.409 146.934Z"/><path fill="#E7DFEA" d="M175.054 160.669C176.521 159.476 185.888 158.57 188.535 158.102C196.854 156.7 205.106 154.924 213.266 152.78C217.826 151.541 222.376 150.267 226.916 148.958C229.739 148.117 237.755 145.405 240.311 145.38C241.136 145.602 241.96 145.89 242.804 145.8C240.386 147.41 233.242 149.733 230.392 150.637C214.503 155.854 198.178 159.632 181.612 161.925C180.116 162.127 175.448 162.852 174.091 162.577C174.96 161.981 174.881 161.595 175.054 160.669Z"/><path fill="#9682BC" d="M175.054 160.669C176.521 159.476 185.888 158.57 188.535 158.102C196.854 156.7 205.106 154.924 213.266 152.78C217.826 151.541 222.376 150.267 226.916 148.958C229.739 148.117 237.755 145.405 240.311 145.38C236.835 147.158 230.613 148.942 226.772 150.117C210.003 155.248 192.562 159.214 175.054 160.669Z"/><path fill="#6D4A9C" d="M272.015 132.187C274.311 131.03 278.196 128.972 280.499 128.222C279.341 129.5 275.114 133.595 273.69 134.352L273.444 133.948C274.3 133.27 274.766 132.928 275.483 132.074C274.392 131.743 274.239 132.807 272.112 132.215L272.015 132.187Z"/><path fill="text-purple" d="M379.971 84.9301C384.548 85.0217 389.127 85.0332 393.704 84.9644C402.612 84.9167 406.789 83.7939 409.167 93.9117C409.624 97.01 409.826 100.883 409.545 104.012C409.476 119.596 393.492 115.064 382.874 115.948C382.08 116.015 381.168 115.974 380.358 115.989C380.153 112.223 380.222 108.035 380.209 104.234L380.145 93.977C379.936 90.9622 380.167 87.9919 379.971 84.9301ZM389.967 103.991L390.028 107.9L398.766 107.78C399.479 106.75 400.423 105.187 400.688 103.957C401.311 100.762 400.798 97.9428 400.347 94.7732C400.271 94.3341 400.301 93.9093 399.993 93.749C397.397 92.3995 392.839 92.4624 390.015 92.4829L389.99 95.4769L389.967 103.991Z"/><path fill="text-purple" d="M380.209 104.234C381.449 104.003 388.817 103.74 389.967 103.991L390.028 107.9L398.766 107.78C399.479 106.75 400.423 105.187 400.688 103.957C402.551 103.951 407.961 103.812 409.545 104.012C409.476 119.596 393.492 115.064 382.874 115.948C382.08 116.015 381.168 115.974 380.358 115.989C380.153 112.223 380.222 108.035 380.209 104.234Z"/><path fill="text-purple" d="M380.145 93.977C382.257 94.1353 388.494 93.6107 389.658 94.3938L389.99 95.4769L389.967 103.991C388.817 103.74 381.449 104.003 380.209 104.234L380.145 93.977Z"/><path fill="text-purple" d="M400.347 94.7732L400.583 94.1079C401.384 93.6271 407.388 94.151 409.167 93.9117C409.624 97.01 409.826 100.883 409.545 104.012C407.961 103.812 402.551 103.951 400.688 103.957C401.311 100.762 400.798 97.9428 400.347 94.7732Z"/><path fill="text-purple" d="M55.9434 84.9851C60.4155 85.0358 64.8879 85.04 69.36 84.9976C77.6724 84.9628 82.9851 83.9487 84.6835 93.899C85.2955 97.296 84.7887 102.723 81.6484 104.847C81.3337 106.304 84.7016 113.095 85.4495 115.565C82.0715 115.533 78.6932 115.543 75.3154 115.594C74.2346 113.06 73.1315 110.312 71.7805 107.932C69.7586 108.05 66.9862 107.977 64.9047 107.979C65.0187 110.339 64.9824 113.134 65.0115 115.528L56.0343 115.531C56.0698 111.737 56.0208 107.853 56.0103 104.053L56.0487 93.9446L55.9434 84.9851ZM65.006 98.978C68.7836 98.9936 71.997 99.012 75.78 98.7753L76.0272 93.5418C73.8651 92.8203 67.1366 92.7039 64.9947 93.348L65.006 98.978Z"/><path fill="text-purple" d="M56.0103 104.053C59.9807 103.828 79.1033 103.006 81.6484 104.847C81.3337 106.304 84.7016 113.095 85.4495 115.565C82.0715 115.533 78.6932 115.543 75.3154 115.594C74.2346 113.06 73.1315 110.312 71.7805 107.932C69.7586 108.05 66.9862 107.977 64.9047 107.979C65.0187 110.339 64.9824 113.134 65.0115 115.528L56.0343 115.531C56.0698 111.737 56.0208 107.853 56.0103 104.053Z"/><path fill="text-purple" d="M55.9434 84.9851C60.4155 85.0358 64.8879 85.04 69.36 84.9976C77.6724 84.9628 82.9851 83.9487 84.6835 93.899C83.4533 94.05 77.4538 93.6274 76.0272 93.5418C73.8651 92.8203 67.1366 92.7039 64.9947 93.348C63.3571 93.9009 58.0717 93.9688 56.2786 93.799L56.0487 93.9446L55.9434 84.9851Z"/><path fill="text-purple" d="M290.211 85.0247C293.391 85.0828 296.572 85.0898 299.752 85.0455C301.367 88.1223 302.445 90.5362 303.701 93.7927L307.768 103.448C308.963 106.858 311.572 112.353 313.053 116.025C310.959 115.97 308.905 115.993 306.816 116.157C302.64 116.486 302.438 114.574 301.826 111.275C298.921 111.209 291.102 110.661 288.474 111.403C287.926 112.017 287.335 115.057 287.105 115.999C283.847 115.867 280.179 115.944 276.889 115.951C278.576 112.89 280.259 107.296 282.291 103.47C283.927 100.281 285.633 96.1342 287.074 92.7967C287.759 90.9305 289.241 86.6768 290.211 85.0247ZM291.831 102.789C293.393 103.323 296.071 102.913 297.728 103.135C296.983 100.699 295.58 97.7195 294.506 95.4235C293.78 98.4931 293.295 100.008 291.831 102.789Z"/><path fill="text-purple" d="M290.211 85.0247C293.391 85.0828 296.572 85.0898 299.752 85.0455C301.367 88.1223 302.445 90.5362 303.701 93.7927L307.768 103.448C306.383 104.084 298.75 104.146 297.728 103.135C296.983 100.699 295.58 97.7195 294.506 95.4235C293.78 98.4931 293.295 100.008 291.831 102.789C290.526 103.984 283.598 104.58 282.291 103.47C283.927 100.281 285.633 96.1342 287.074 92.7967C287.759 90.9305 289.241 86.6768 290.211 85.0247Z"/><path fill="text-purple" d="M290.211 85.0247C293.391 85.0828 296.572 85.0898 299.752 85.0455C301.367 88.1223 302.445 90.5362 303.701 93.7927C300.54 93.7398 289.19 93.9115 287.074 92.7967C287.759 90.9305 289.241 86.6768 290.211 85.0247Z"/><path fill="text-purple" d="M96.1353 93.5555C100.174 82.7923 98.719 85.0409 109.618 85.0597C110.497 87.4814 111.951 91.5352 113.096 93.8059C114.053 96.2741 116.046 101.231 117.207 103.558C119.314 107.967 120.508 111.185 122.316 115.533L112.67 115.466C112.378 114.286 111.947 112.73 111.79 111.562C108.989 111.178 100.183 110.169 97.9569 111.714C97.242 112.641 96.9606 114.374 96.6935 115.563L86.6679 115.523C87.224 113.752 90.634 105.033 91.563 103.917C93.031 100.454 94.6562 97.024 96.1353 93.5555ZM101.798 103.011C103.07 103.026 105.726 102.989 106.877 103.175C106.4 99.3543 105.977 98.8374 104.293 95.4378C103.271 97.9913 102.428 100.333 101.798 103.011Z"/><path fill="text-purple" d="M91.563 103.917C92.5107 103.964 93.4596 103.984 94.4085 103.976C96.0964 103.973 100.718 104.095 101.798 103.011C103.07 103.026 105.726 102.989 106.877 103.175C107.891 104.078 115.973 104.314 117.207 103.558C119.314 107.967 120.508 111.185 122.316 115.533L112.67 115.466C112.378 114.286 111.947 112.73 111.79 111.562C108.989 111.178 100.183 110.169 97.9569 111.714C97.242 112.641 96.9606 114.374 96.6935 115.563L86.6679 115.523C87.224 113.752 90.634 105.033 91.563 103.917Z"/><path fill="text-purple" d="M96.1353 93.5555C100.174 82.7923 98.719 85.0409 109.618 85.0597C110.497 87.4814 111.951 91.5352 113.096 93.8059C111.591 94.1983 97.1602 94.1791 96.1353 93.5555Z"/><path fill="text-purple" d="M184.959 84.9943C187.027 85.0313 191.013 85.0038 192.91 85.2727C195.048 87.8793 196.639 90.2899 198.498 93.1001C199.844 94.9321 201.209 96.8471 202.618 98.6232C202.369 96.5529 202.262 95.3589 202.249 93.2381C202.185 90.9471 201.961 87.1906 202.056 85.0138C205.371 85.0859 208.688 85.0836 212.003 85.0068C211.982 87.7117 211.899 90.7065 211.992 93.386C211.967 97.0348 211.982 100.768 211.9 104.409L212.025 115.596C209.28 115.767 206.149 115.661 203.367 115.625C201.713 112.726 197.723 107.211 195.717 104.451C195.158 103.709 195.184 103.496 194.412 103.185L193.996 103.59C191.713 103.999 186.415 103.782 185.036 104.167L185.064 92.8385C185.083 90.2234 185.048 87.6081 184.959 84.9943Z"/><path fill="text-purple" d="M195.717 104.451C197.211 104.123 211.119 103.823 211.9 104.409L212.025 115.596C209.28 115.767 206.149 115.661 203.367 115.625C201.713 112.726 197.723 107.211 195.717 104.451Z"/><path fill="text-purple" d="M184.959 84.9943C187.027 85.0313 191.013 85.0038 192.91 85.2727C195.048 87.8793 196.639 90.2899 198.498 93.1001C196.966 93.7455 186.929 93.2996 185.064 92.8385C185.083 90.2234 185.048 87.6081 184.959 84.9943Z"/><path fill="text-purple" d="M202.056 85.0138C205.371 85.0859 208.688 85.0836 212.003 85.0068C211.982 87.7117 211.899 90.7065 211.992 93.386C210.479 93.5066 204.143 93.2587 202.249 93.2381C202.185 90.9471 201.961 87.1906 202.056 85.0138Z"/><path fill="text-purple" d="M354.967 81.0587C357.104 80.9353 358.422 80.9657 360.534 81.0653C363.79 83.2994 362.383 84.6914 362.1 87.6167L362.381 87.9297C363.481 88.0377 364.51 87.0025 365.562 86.5965C368.355 85.5189 371.585 87.4219 373.751 88.9726C375.212 90.0191 377.031 91.5131 377.054 93.2847C376.616 94.4455 372.438 96.691 371.236 97.2819C372.043 101.753 371.496 110.987 371.373 116.011C369.606 115.936 367.542 116.331 366.262 115.455C365.747 114.484 365.926 114.258 365.942 113.071C365.835 112.025 365.862 110.407 365.766 109.181C364.636 111.233 363.974 113.724 362.727 115.613C362.178 116.444 358.017 115.321 357.188 114.918C356.071 114.375 355.415 114.227 355.395 112.916C356.084 112.049 356.562 112.055 357.68 111.593C358.642 110.292 359.05 109.081 359.647 107.727C362.083 102.204 360.059 99.4714 358.622 94.2148C358.489 93.7275 358.222 91.0841 358.136 90.3675C357.353 89.7861 356.44 90.0701 355.443 89.7133C354.162 89.2551 353.109 86.8329 352.008 86.2565C351.774 86.1339 350.833 86.1603 349.917 85.6341L349.941 85.224C352.799 83.7328 353.033 81.7502 354.967 81.0587Z"/><path fill="text-purple" d="M326.002 84.5348C329.144 84.516 332.631 84.5722 335.744 84.4591C335.591 87.4019 335.78 90.6394 335.793 93.6253L335.741 107.929C340.279 107.984 344.817 107.991 349.355 107.949C349.277 110.444 349.252 113.522 348.96 115.948C341.661 115.905 333.353 115.724 326.077 115.915C326.032 111.962 326.019 108.009 326.038 104.057L326.063 93.53C326.045 90.5455 326.056 87.5146 326.002 84.5348Z"/><path fill="text-purple" d="M326.063 93.53C326.879 93.196 334.323 93.7555 335.519 93.8942L335.407 103.9C332.284 103.984 329.13 103.963 326.038 104.057L326.063 93.53Z"/><path fill="text-purple" d="M22.558 94.2988C24.1831 85.3937 28.5735 84.8622 36.6071 84.9936C45.4099 85.1376 49.4267 84.2195 51.8949 93.813C51.9737 95.2192 52.0211 96.6271 52.037 98.0355C49.0873 98.0375 46.0186 97.9967 43.0796 98.0675L42.5777 94.7982C42.5544 94.4566 42.5088 93.7331 42.1139 93.6006C39.2136 92.6275 35.4584 92.4626 32.5144 93.3752C31.8222 93.5897 31.7578 94.1061 31.5493 94.6869L31.3971 97.2518L31.1888 103.76L30.6791 103.872C28.9655 103.903 23.5486 103.893 22.2447 104.308C22.2253 101.125 22.1218 97.4142 22.558 94.2988Z"/><path fill="text-purple" d="M22.2447 104.308C22.2253 101.125 22.1218 97.4142 22.558 94.2988C23.7154 95.4225 29.9781 95.1712 31.5493 94.6869L31.3971 97.2518L31.1888 103.76L30.6791 103.872C28.9655 103.903 23.5486 103.893 22.2447 104.308Z"/><path fill="text-purple" d="M42.5777 94.7982C42.6313 94.5478 42.8063 94.1613 42.9106 93.9088C44.1283 93.5153 49.7007 94.0693 51.8949 93.813C51.9737 95.2192 52.0211 96.6271 52.037 98.0355C49.0873 98.0375 46.0186 97.9967 43.0796 98.0675L42.5777 94.7982Z"/><path fill="text-purple" d="M31.1888 103.76C31.3617 106.248 31.842 106.703 33.975 107.96C35.4646 108.023 37.0461 108.093 38.5267 108.172C42.1291 108.364 42.3829 106.782 43.1473 104.001L52.1081 103.963C51.5824 112.883 48.7254 115.274 39.6381 115.626C34.0157 115.844 28.0966 115.934 23.9072 111.454C22.2906 109.688 22.2533 106.585 22.2447 104.308C23.5486 103.893 28.9655 103.903 30.6791 103.872L31.1888 103.76Z"/><path fill="text-purple" d="M249.078 104.028L257.969 103.955L257.985 108.002C263.654 108.04 269.322 108.043 274.99 108.011C274.952 110.666 274.973 113.322 275.055 115.976C267.93 115.471 256.569 115.845 249.006 115.827C249.094 111.969 249.058 107.902 249.078 104.028Z"/><path fill="text-purple" d="M154.027 104.042C156.753 103.926 160.347 103.834 163.057 103.979L162.985 108.001L180.02 108.006C179.96 110.563 179.962 113.121 180.025 115.677C171.329 115.736 162.77 115.431 154.008 115.726C154.065 111.878 154.023 107.9 154.027 104.042Z"/><path fill="text-purple" d="M236.573 104.286C238.975 103.742 243.027 103.927 245.583 103.914C245.51 106.587 245.584 110.736 243.359 112.684C239.599 115.975 233.554 115.833 228.762 115.866C223.928 115.899 217.064 114.125 216.83 108.151C216.805 107.505 216.964 107.418 217.334 106.951C221.338 105.046 233.62 112.059 236.357 106.696C236.546 106.324 236.564 104.814 236.573 104.286Z"/><path fill="text-purple" d="M217.124 93.4491C217.446 93.6212 217.79 93.7484 218.147 93.8271C220.498 94.3644 223.909 93.7027 225.98 92.3825L225.998 95.9738C232.14 96.0287 245.292 94.9473 245.583 103.914C243.027 103.927 238.975 103.742 236.573 104.286C229.329 104.286 222.57 105.465 217.154 99.7858C216.932 98.0186 216.988 95.1956 217.124 93.4491Z"/><path fill="text-purple" d="M248.971 85.0024C257.424 85.193 266.511 85.1197 274.978 85.0146C274.962 87.6734 274.986 90.3322 275.05 92.9903C272.356 92.932 259.091 92.5468 257.99 93.2817C255.413 94.3195 251.713 94.0068 249.038 93.4765C249.039 90.6517 249.016 87.8269 248.971 85.0024Z"/><path fill="text-purple" d="M249.038 93.4765C251.713 94.0068 255.413 94.3195 257.99 93.2817C258.048 94.4831 258.148 95.7733 258.062 96.9664C263.948 97.0502 269.299 96.7891 275.026 96.7657L275.022 104.094C269.314 103.867 263.602 104.121 257.969 103.955L249.078 104.028C249.039 100.511 249.026 96.9937 249.038 93.4765Z"/><path fill="text-purple" d="M154.12 93.8104C156.72 94.3192 159.516 93.6559 162.15 93.9378C162.765 94.0037 162.79 94.2799 163.014 94.8655C162.977 95.5653 162.829 96.3945 163.241 96.9234C165.695 97.2676 177.095 97.0052 180.021 96.9386C180.009 99.3063 179.956 101.815 180.009 104.17C174.749 103.981 167.921 104.299 163.057 103.979C160.347 103.834 156.753 103.926 154.027 104.042C154.15 100.793 154.017 97.2066 154.12 93.8104Z"/><path fill="text-purple" d="M154.134 84.9943C162.066 85.2155 172.063 85.2432 180.005 84.9974C179.984 87.3506 179.895 90.1889 180.005 92.498C177.825 92.4782 163.814 92.0796 162.91 92.9041C162.862 93.7182 162.906 94.052 163.014 94.8655C162.79 94.2799 162.765 94.0037 162.15 93.9378C159.516 93.6559 156.72 94.3192 154.12 93.8104C153.888 90.7466 154.265 87.9367 154.134 84.9943Z"/><path fill="text-purple" d="M217.124 93.4491C217.474 90.2561 217.601 88.3541 220.545 86.5799C225.246 83.7475 231.796 84.0326 237.033 84.8845C241.631 85.6325 243.269 89.1568 245.505 92.7092C242.305 93.1428 226.932 91.8628 225.98 92.3825C223.909 93.7027 220.498 94.3644 218.147 93.8271C217.79 93.7484 217.446 93.6212 217.124 93.4491Z"/><path fill="text-purple" d="M133.183 103.311C133.692 104.615 134.26 105.995 134.668 107.326C134.97 106.274 135.313 104.934 135.709 103.944C137.063 103.846 144.068 103.758 145.188 104.034C144.367 106.712 141.89 112.367 140.773 115.51C136.924 115.534 133.076 115.537 129.228 115.52C127.373 111.947 125.753 107.785 123.962 104.066C125.812 103.572 132.006 104.442 133.183 103.311Z"/><path fill="text-purple" d="M116.96 85.0199C119.865 85.0411 122.771 85.0375 125.677 85.0089C126.996 87.8408 128.2 90.9323 129.386 93.839C130.329 97.1789 131.862 100.143 133.183 103.311C132.006 104.442 125.812 103.572 123.962 104.066C122.58 100.85 120.984 97.504 119.926 94.1877C118.905 91.8184 117.741 87.6086 116.96 85.0199Z"/><path fill="text-purple" d="M116.96 85.0199C119.865 85.0411 122.771 85.0375 125.677 85.0089C126.996 87.8408 128.2 90.9323 129.386 93.839C126.996 94.0027 121.593 93.4181 119.926 94.1877C118.905 91.8184 117.741 87.6086 116.96 85.0199Z"/><path fill="text-purple" d="M185.036 104.167C186.415 103.782 191.713 103.999 193.996 103.59C193.915 107.569 193.918 111.549 194.006 115.528C191.044 115.529 187.965 115.486 185.014 115.547C185.044 111.754 185.052 107.96 185.036 104.167Z"/><path fill="text-purple" d="M139.777 93.0823C142.131 94.7327 146.936 92.9819 149.265 94.591C148.096 97.4306 146.581 101.401 145.188 104.034C144.068 103.758 137.063 103.846 135.709 103.944C137.053 100.491 138.605 96.5751 139.777 93.0823Z"/><path fill="text-purple" d="M143.041 85.0574C146.216 85.0718 150.103 85.1492 153.228 84.9659C151.704 88.2142 150.674 91.4501 149.265 94.591C146.936 92.9819 142.131 94.7327 139.777 93.0823C140.847 90.5694 141.949 87.4482 143.041 85.0574Z"/><path fill="text-purple" d="M411.941 106.996C412.985 106.828 420.553 106.927 422.088 106.917C421.99 109.851 421.978 112.787 422.051 115.722C418.918 115.848 415.164 115.762 411.997 115.769L411.941 106.996Z"/><path fill="text-purple" d="M192.684 55.3406C194.988 54.261 197.565 53.5198 199.994 52.7478C217.462 47.1956 235.305 42.5643 253.524 40.3273C255.892 40.0365 258.164 39.9448 260.545 40.1591C256.698 41.3314 253.033 40.9705 249.187 41.5047C246.107 41.9323 242.436 42.7633 239.322 43.3588C223.682 46.3927 208.284 50.5673 193.253 55.8491L192.684 55.3406Z"/><path fill="text-purple" d="M277.011 16.356C280.778 15.8706 297.822 16.975 300.614 18.7651C300.357 18.9853 297.648 18.3313 297.047 18.2524C287.585 17.0096 278.764 16.683 269.311 17.9651C264.26 17.9329 255.85 19.9673 250.782 20.9018C249.46 21.1455 247.572 21.984 246.685 21.9687L246.682 21.6932C250.126 18.9924 272.044 16.7089 277.011 16.356Z"/><path fill="#6E6685" d="M179.851 178.049L180.257 178.151L180.122 178.495C178.968 179.26 176.063 179.805 174.588 180.11C162.351 182.644 147.658 182.255 135.206 181.129C134.542 180.883 134.719 181.05 134.408 180.549C135.428 179.824 140.482 180.959 142.631 180.987C156.837 181.177 165.769 181.547 179.851 178.049Z"/><path fill="#6E6685" fill-opacity="0.95686275" d="M189.181 56.958C190.154 56.4474 191.671 55.5739 192.684 55.3406L193.253 55.8491C191.889 56.2814 190.569 56.6083 189.181 56.958Z"/><path fill="#070009" fill-opacity="0.011764706" d="M222.514 105.223C222.919 105.059 223.126 105.226 223.639 105.374L223.767 105.636L222.684 105.633L222.514 105.223Z"/></svg>